<svg width="853" height="345" viewBox="0 0 853 345" fill="none" xmlns="http://www.w3.org/2000/svg">
<g clip-path="url(#clip0)">
<path d="M55.52 253.64H0V57.9H39.87C52.6647 57.9238 64.9285 63.017 73.9758 72.0642C83.023 81.1115 88.1162 93.3753 88.14 106.17C88.199 114.02 86.2873 121.76 82.58 128.68C93.8898 133.903 103.505 142.198 110.33 152.62C116.941 162.752 120.605 174.523 120.914 186.617C121.223 198.711 118.164 210.653 112.08 221.11C106.29 230.843 98.1606 238.976 88.43 244.77C78.4877 250.704 67.098 253.774 55.52 253.64ZM37.39 126.2C39.9033 126.229 42.3971 125.755 44.7242 124.805C47.0514 123.855 49.1648 122.449 50.94 120.67C52.7874 118.934 54.2509 116.831 55.2361 114.496C56.2212 112.16 56.7063 109.644 56.66 107.11C56.6881 104.603 56.2031 102.116 55.235 99.8032C54.2668 97.4902 52.8358 95.3996 51.03 93.66C49.2615 91.8397 47.1388 90.4011 44.7929 89.4328C42.447 88.4646 39.9275 87.9871 37.39 88.03H31.67V126.19L37.39 126.2ZM55.52 221.97C64.4498 221.97 73.0139 218.423 79.3283 212.108C85.6426 205.794 89.19 197.23 89.19 188.3C89.19 179.37 85.6426 170.806 79.3283 164.492C73.0139 158.177 64.4498 154.63 55.52 154.63H31.67V221.97H55.52Z" fill="black"/>
<path d="M256.58 253.64L217.28 188.96H200.09V253.64H168.42V57.9H228.71C240.315 57.7735 251.732 60.8421 261.71 66.77C271.506 72.5609 279.679 80.7341 285.47 90.53C291.742 101.309 294.794 113.66 294.262 126.119C293.73 138.579 289.638 150.625 282.47 160.83C274.766 171.688 264.017 180.019 251.58 184.77L293.36 253.64H256.58ZM252.77 147.38C257.507 142.64 260.73 136.601 262.034 130.028C263.337 123.454 262.661 116.642 260.092 110.453C257.523 104.264 253.175 98.9767 247.6 95.2593C242.024 91.5419 235.471 89.562 228.77 89.57H200.09V157.3H228.71C233.182 157.375 237.622 156.533 241.756 154.827C245.891 153.121 249.632 150.587 252.75 147.38H252.77Z" fill="black"/>
<path d="M579.29 253.64V57.9H610.96V221.97H675.44V253.64H579.29Z" fill="black"/>
<path d="M722.91 253.64V57.9H755.35C772.581 57.7201 789.531 62.2758 804.35 71.07C818.93 79.6516 831.06 91.8341 839.58 106.45C848.149 121.479 852.656 138.48 852.656 155.78C852.656 173.08 848.149 190.081 839.58 205.11C831.072 219.721 818.955 231.903 804.39 240.49C789.571 249.284 772.621 253.84 755.39 253.66L722.91 253.64ZM802.18 202.64C814.96 189.853 821.35 174.24 821.35 155.8C821.35 137.36 814.96 121.737 802.18 108.93C789.4 96.15 773.533 89.6333 754.58 89.38V222.16C773.533 221.907 789.4 215.39 802.18 202.61V202.64Z" fill="black"/>
<path d="M434.07 57.11C414.49 57.11 395.349 62.9163 379.069 73.7945C362.788 84.6728 350.099 100.134 342.606 118.224C335.113 136.314 333.152 156.22 336.972 175.424C340.792 194.628 350.221 212.268 364.066 226.114C377.912 239.959 395.552 249.388 414.756 253.208C433.96 257.028 453.866 255.067 471.956 247.574C490.046 240.081 505.507 227.392 516.385 211.111C527.264 194.831 533.07 175.69 533.07 156.11C533.07 129.854 522.64 104.673 504.074 86.1064C485.507 67.5403 460.326 57.11 434.07 57.11ZM433.95 219.96C421.292 219.96 408.918 216.206 398.394 209.174C387.869 202.142 379.666 192.146 374.822 180.452C369.978 168.757 368.71 155.889 371.18 143.474C373.649 131.059 379.745 119.656 388.695 110.705C397.646 101.755 409.049 95.6592 421.464 93.1897C433.879 90.7203 446.747 91.9877 458.442 96.8317C470.136 101.676 480.132 109.879 487.164 120.404C494.196 130.928 497.95 143.302 497.95 155.96C497.939 172.927 491.192 189.195 479.191 201.189C467.19 213.183 450.917 219.92 433.95 219.92V219.96Z" fill="#800080"/>
<path d="M390.26 32.62C399.268 32.62 406.57 25.3178 406.57 16.31C406.57 7.30224 399.268 0 390.26 0C381.252 0 373.95 7.30224 373.95 16.31C373.95 25.3178 381.252 32.62 390.26 32.62Z" fill="#800080"/>
<path d="M477.61 32.62C486.618 32.62 493.92 25.3178 493.92 16.31C493.92 7.30224 486.618 0 477.61 0C468.602 0 461.3 7.30224 461.3 16.31C461.3 25.3178 468.602 32.62 477.61 32.62Z" fill="#800080"/>
<path d="M336.58 339.41H321.85L319.85 343.86H316.58L329.08 316.38H329.42L341.94 343.86H338.58L336.58 339.41ZM335.41 336.76L329.22 322.84L323.01 336.76H335.41Z" fill="#727272"/>
<path d="M383.21 331.45C383.244 333.141 382.936 334.822 382.303 336.39C381.67 337.959 380.727 339.383 379.529 340.577C378.331 341.771 376.904 342.711 375.333 343.338C373.762 343.966 372.081 344.269 370.39 344.23C366.704 344.246 363.162 342.797 360.544 340.201C357.926 337.606 356.446 334.077 356.43 330.39C356.414 326.704 357.863 323.162 360.459 320.544C363.054 317.926 366.584 316.446 370.27 316.43C373.913 316.585 377.384 318.023 380.07 320.49L378.36 323.03C376.178 320.901 373.294 319.643 370.25 319.49C368.802 319.466 367.365 319.733 366.022 320.274C364.679 320.815 363.458 321.62 362.432 322.641C361.406 323.663 360.594 324.879 360.046 326.219C359.498 327.559 359.225 328.996 359.241 330.444C359.258 331.891 359.565 333.321 360.144 334.648C360.723 335.975 361.562 337.173 362.611 338.17C363.661 339.167 364.9 339.944 366.255 340.454C367.61 340.964 369.053 341.197 370.5 341.14C375.79 341.14 379.95 337.6 379.95 332.81C379.95 332.61 379.95 332.43 379.95 332.28H370.25V329.52H383.1C383.172 330.161 383.209 330.805 383.21 331.45Z" fill="#727272"/>
<path d="M405.66 319.8V328.36H416.78V331.42H405.66V340.82H418.5V343.82H402.58V316.8H418.48V319.8H405.66ZM406.76 314.32H404.23L409.48 309.41H411.25L416.53 314.32H413.98L410.37 311.01L406.76 314.32Z" fill="#727272"/>
<path d="M460.21 316.73V344.28H460.06L441.52 323.68V343.89H438.46V316.38H438.63L457.16 336.96V316.73H460.21Z" fill="#727272"/>
<path d="M479.58 330.35C479.596 326.666 481.062 323.137 483.663 320.528C486.263 317.918 489.786 316.439 493.47 316.41C496.985 316.517 500.32 317.988 502.77 320.51L500.99 322.91C500.008 321.866 498.827 321.028 497.517 320.446C496.207 319.863 494.793 319.549 493.36 319.52C491.563 319.49 489.788 319.908 488.193 320.737C486.599 321.565 485.237 322.778 484.229 324.266C483.221 325.753 482.6 327.468 482.422 329.256C482.244 331.044 482.514 332.848 483.208 334.506C483.902 336.163 484.999 337.621 486.398 338.748C487.798 339.875 489.456 340.635 491.223 340.96C492.99 341.285 494.81 341.165 496.519 340.609C498.228 340.054 499.771 339.082 501.01 337.78L502.77 340.23C501.572 341.487 500.133 342.49 498.538 343.177C496.944 343.865 495.226 344.223 493.49 344.23C489.813 344.206 486.293 342.738 483.691 340.14C481.088 337.543 479.611 334.027 479.58 330.35Z" fill="#727272"/>
<path d="M521.63 316.8H524.68V343.86H521.63V316.8Z" fill="#727272"/>
<path d="M563.15 339.41H548.38L546.38 343.86H543.07L555.58 316.38H555.92L568.44 343.86H565.12L563.15 339.41ZM561.97 336.76L555.78 322.84L549.58 336.76H561.97Z" fill="#727272"/>
</g>
<defs>
<clipPath id="clip0">
<rect width="852.64" height="344.28" fill="white"/>
</clipPath>
</defs>
</svg>
